<?xml version="1.0" encoding="UTF-8" standalone="no"?>
<!-- Created with Inkscape (http://www.inkscape.org/) -->

<svg
   width="769.86432"
   height="847.91302"
   viewBox="0 0 203.69326 224.34366"
   version="1.1"
   id="svg1"
   xmlns="http://www.w3.org/2000/svg"
   xmlns:svg="http://www.w3.org/2000/svg">
  <defs
     id="defs1" />
  <g
     id="layer3"
     transform="matrix(3.8375646,0,0,3.846881,-306.72429,-420.55683)">
    <g
       id="g170"
       transform="translate(-4.482178,52.941612)"
       style="fill:#dfdfdf;fill-opacity:1">
      <path
         d="m 120.70017,77.504721 -6.28489,0.0031 c 0,0 -1.73955,-0.158078 -3.55482,1.882056 0,0 -0.46707,0.352207 -1.45676,2.144572 -0.007,0.580728 -0.001,8.135937 -0.001,8.135937 l 4.71185,5.17e-4 -0.0822,-6.688997 c 0,0 0.23629,-1.443824 1.59628,-1.449524 1.35997,-0.006 5.07049,0.0021 5.07049,0.0021 v -5.17e-4 z m 1.418,0 -0.003,4.029728 c 0,0 6.44949,-0.0061 8.37055,-0.0021 2.67725,0.003 2.64376,2.424658 2.64376,2.424658 0,0 0.004,5.776567 0.001,7.159253 -0.003,1.382706 -1.70636,1.488281 -1.70636,1.488281 l -22.02817,-0.02839 c 1.83386,3.46067 4.63486,4.467428 4.63486,4.467428 l 17.58859,0.0021 c 0,0 2.29673,-0.865504 4.05505,-2.16731 1.75835,-1.301826 1.81332,-3.693831 1.81332,-3.693831 l -0.001,-8.331275 c 0,0 -0.54403,-1.755564 -2.21072,-3.606498 -1.66667,-1.850934 -3.94601,-1.738912 -3.94601,-1.738912 z"
         style="display:inline;opacity:1;fill:#dfdfdf;fill-opacity:1;fill-rule:nonzero;stroke-width:0.264583;stroke-linecap:square;stroke-linejoin:round;paint-order:fill markers stroke"
         id="path169" />
      <path
         d="m 120.70327,56.382496 -36.290285,0.01344 -0.004,19.876823 23.803715,-0.0041 -5.2e-4,-4.588867 -19.090305,0.0021 -0.005,-10.138916 31.868845,-0.0021 c 0,0 2.21507,0.864908 5.72213,3.902604 3.50704,3.037697 4.04678,6.237346 4.04678,6.237346 l 5.16248,-10e-4 c 0,0 -1.52075,-5.61723 -6.36757,-10.19576 -4.8468,-4.57851 -8.84597,-5.101497 -8.84597,-5.101497 z M 101.9964,77.504204 v 5.17e-4 l -17.586515,0.0021 0.004,19.768819 5.2e-4,2.86649 c 6.9e-4,0.0141 0.002,0.0283 0.002,0.0424 0,0.008 -0.002,0.0146 -0.002,0.0222 l 5.1e-4,3.31505 0.002,0.002 11.24479,11.24582 h 1.69809 3.000335 l 7.0006,-5.2e-4 h 2.44378 l 6.1128,-5.1e-4 h 3.00034 0.94309 c 0,0 2.6189,-0.44535 8.67751,-5.06739 6.05862,-4.62202 7.83621,-11.190023 7.83621,-11.190023 l -5.90093,0.02015 c 0,0 0.19676,2.811733 -4.62866,6.877613 -3.42672,2.88733 -5.81535,3.82601 -6.92722,4.13567 v -4.15634 c 0.9219,-0.53239 1.49263,-1.51357 1.49965,-2.57814 -1e-4,-1.65686 -1.34346,-3.000001 -3.00034,-2.999811 -1.65666,1e-4 -2.99971,1.343151 -2.99981,2.999811 0.007,1.06486 0.5779,2.0463 1.50016,2.57866 v 4.3155 l -6.09265,0.001 0.0289,-7.17372 c 0.74277,-0.42476 1.2098,-1.20701 1.23093,-2.06241 0.007,-1.350467 -1.085,-2.450141 -2.43551,-2.455661 l 0.002,-0.0015 c -1.3505,-0.007 -2.44935,1.085536 -2.45463,2.436031 0.0136,0.85577 0.47472,1.64149 1.2144,2.07222 l -0.0289,7.18509 -7.02127,5.2e-4 v -4.31757 c 0.92191,-0.5324 1.49263,-1.51355 1.49965,-2.57814 -1.1e-4,-1.65689 -1.34344,-3.000001 -3.000335,-2.999811 -1.65669,10e-5 -2.99971,1.343121 -2.99982,2.999811 0.007,1.06488 0.57789,2.04629 1.50017,2.57866 v 4.30103 l -8.24239,-8.25376 10e-4,-11.768791 19.095475,0.0015 v -4.496883 l -19.097545,0.0062 0.002,-3.646289 15.806785,0.0031 c 0,0 0.10853,-2.745135 -2.92902,-4.030761 z m 6.64972,21.730456 c 0.64298,0.005 1.17176,0.507975 1.21026,1.1498 l 0.007,5.2e-4 -5.2e-4,0.0786 c -0.002,0.67512 -0.55266,1.22031 -1.22783,1.2175 -0.67432,-0.002 -1.21912,-0.55143 -1.2175,-1.22577 l -5.1e-4,-0.002 5.1e-4,-0.002 5.2e-4,-0.0765 h 0.0207 c 0.0432,-0.636335 0.56886,-1.132425 1.20665,-1.139465 z m -9.786475,2.07584 c 0.79043,10e-4 1.444435,0.61526 1.494995,1.40405 0.003,0.0318 0.004,0.0637 0.005,0.0956 9e-5,0.82855 -0.671605,1.50027 -1.500165,1.50017 -0.82834,-1.9e-4 -1.49974,-0.67182 -1.49965,-1.50017 v -0.0956 h 0.015 c 0.0503,-0.78484 0.69822,-1.39762 1.48466,-1.40405 z m 18.557515,0 c 0.79042,10e-4 1.44444,0.61527 1.495,1.40405 0.003,0.0318 0.005,0.0637 0.005,0.0956 1e-4,0.82854 -0.67163,1.50027 -1.50016,1.50017 -0.82835,-1.9e-4 -1.49975,-0.67183 -1.49965,-1.50017 v -0.0956 h 0.0155 c 0.0503,-0.78483 0.69824,-1.39762 1.48466,-1.40405 z"
         style="display:inline;opacity:1;fill:#dfdfdf;fill-opacity:1;fill-rule:nonzero;stroke:none;stroke-width:0.340592;stroke-linecap:square;stroke-linejoin:round;paint-order:fill markers stroke"
         id="path170" />
    </g>
  </g>
</svg>
