<?xml version="1.0" encoding="UTF-8" standalone="no"?>
<!-- Created with Inkscape (http://www.inkscape.org/) -->

<svg
  width="200.61316"
  height="220.67558"
  viewBox="0 0 53.078898 58.387081"
  version="1.1"
  id="svg1"
  xmlns:inkscape="http://www.inkscape.org/namespaces/inkscape"
  xmlns:sodipodi="http://sodipodi.sourceforge.net/DTD/sodipodi-0.dtd"
  xmlns="http://www.w3.org/2000/svg"
  xmlns:svg="http://www.w3.org/2000/svg">
  <sodipodi:namedview
    id="namedview1"
    pagecolor="#ffffff"
    bordercolor="#000000"
    borderopacity="0.25"
    inkscape:showpageshadow="2"
    inkscape:pageopacity="0.0"
    inkscape:pagecheckerboard="false"
    inkscape:deskcolor="#d1d1d1"
    inkscape:document-units="px"
    inkscape:clip-to-page="false"
    labelstyle="default"
    inkscape:export-bgcolor="#ffffff00"/>
  <defs
    id="defs1"/>
  <g id="layer1"
     transform="translate(-66.939582,-77.522917)">
    <path
      style="display:inline;opacity:1;fill:#ffffff;fill-opacity:1;fill-rule:evenodd;stroke-width:0.264583;stroke-linecap:square;stroke-linejoin:round;paint-order:fill markers stroke"
      d="m 90.74334,97.409047 -23.803758,0.004 0.0041,-19.87683 36.290168,-0.0133 c 0,0 3.99944,0.52275 8.84634,5.10135 4.8469,4.57861 6.36732,10.19581 6.36732,10.19581 l -5.16247,0.001 c 0,0 -0.53987,-3.19931 -4.04699,-6.23706 -3.50712,-3.03775 -5.72192,-3.90289 -5.72192,-3.90289 l -31.86886,0.002 0.0052,10.13891 19.090306,-0.002 z"
      id="path57-3"/>
    <path
      style="display:inline;opacity:1;fill:#ffffff;fill-opacity:1;fill-rule:evenodd;stroke-width:0.264583;stroke-linecap:square;stroke-linejoin:round;paint-order:fill markers stroke"
      d="m 84.52714,98.645157 -17.586523,0.002 0.0052,26.014953 11.246858,11.24789 24.199045,-0.001 c 0,0 2.61848,-0.44505 8.67727,-5.06722 6.05879,-4.62216 7.83658,-11.19006 7.83658,-11.19006 l -5.9009,0.0201 c 0,0 0.19691,2.81169 -4.62866,6.87769 -4.82558,4.06599 -7.64414,4.29521 -7.64414,4.29521 l -20.824571,0.002 -8.258926,-8.2703 0.0011,-11.76879 19.095477,0.002 v -4.49688 l -19.097543,0.006 0.0021,-3.64629 15.806787,0.003 c 0,0 0.108591,-2.745123 -2.929019,-4.030773 z"
      id="path58-8"/>
    <path
      style="display:inline;opacity:1;fill:#ffffff;fill-opacity:1;fill-rule:evenodd;stroke-width:0.264583;stroke-linecap:square;stroke-linejoin:round;paint-order:fill markers stroke"
      d="m 103.22988,102.67488 0.001,-4.029723 -6.284882,0.003 c 0,0 -1.73937,-0.15821 -3.55466,1.881943 0,0 -0.46721,0.35241 -1.4569,2.14479 -0.007,0.58074 -0.001,8.13593 -0.001,8.13593 l 4.71186,10e-4 -0.0824,-6.6892 c 0,0 0.2367,-1.44366 1.5967,-1.44936 1.35999,-0.006 5.070342,0.002 5.070342,0.002 z"
      id="path59-4"
    />
    <path
      style="display:inline;opacity:1;fill:#ffffff;fill-opacity:1;fill-rule:evenodd;stroke-width:0.264583;stroke-linecap:square;stroke-linejoin:round;paint-order:fill markers stroke"
      d="m 104.64891,98.645157 9.21184,0.003 c 0,0 2.27935,-0.11182 3.94605,1.739133 1.66669,1.85094 2.21068,3.60628 2.21068,3.60628 l 10e-4,8.33128 c 0,0 -0.0551,2.39203 -1.81347,3.69386 -1.75833,1.30183 -4.05491,2.16728 -4.05491,2.16728 l -17.588592,-0.002 c 0,0 -2.80094,-1.00665 -4.63481,-4.46734 l 22.028102,0.0284 c 0,0 1.70299,-0.10557 1.70636,-1.48828 0.003,-1.3827 -10e-4,-7.15925 -10e-4,-7.15925 0,0 0.0335,-2.42116 -2.64377,-2.42466 -1.92107,-0.004 -8.37055,0.002 -8.37055,0.002 z"
      id="path60-8"
    />
  </g>
</svg>
